%TF.GenerationSoftware,Altium Limited,Altium Designer,25.7.1 (20)*%
G04 Layer_Color=8388736*
%FSLAX45Y45*%
%MOMM*%
%TF.SameCoordinates,8071C31C-8A66-4455-A033-DC46DB2AE162*%
%TF.FilePolarity,Negative*%
%TF.FileFunction,Soldermask,Top*%
%TF.Part,Single*%
G01*
G75*
%TA.AperFunction,SMDPad,CuDef*%
%ADD26R,2.00000X0.70000*%
%TA.AperFunction,BGAPad,CuDef*%
%ADD40C,1.06620*%
%TA.AperFunction,TestPad*%
G04:AMPARAMS|DCode=41|XSize=0.4mm|YSize=1.25mm|CornerRadius=0.0875mm|HoleSize=0mm|Usage=FLASHONLY|Rotation=270.000|XOffset=0mm|YOffset=0mm|HoleType=Round|Shape=RoundedRectangle|*
%AMROUNDEDRECTD41*
21,1,0.40000,1.07500,0,0,270.0*
21,1,0.22500,1.25000,0,0,270.0*
1,1,0.17500,-0.53750,-0.11250*
1,1,0.17500,-0.53750,0.11250*
1,1,0.17500,0.53750,0.11250*
1,1,0.17500,0.53750,-0.11250*
%
%ADD41ROUNDEDRECTD41*%
G04:AMPARAMS|DCode=42|XSize=0.7mm|YSize=1.25mm|CornerRadius=0.125mm|HoleSize=0mm|Usage=FLASHONLY|Rotation=270.000|XOffset=0mm|YOffset=0mm|HoleType=Round|Shape=RoundedRectangle|*
%AMROUNDEDRECTD42*
21,1,0.70000,1.00000,0,0,270.0*
21,1,0.45000,1.25000,0,0,270.0*
1,1,0.25000,-0.50000,-0.22500*
1,1,0.25000,-0.50000,0.22500*
1,1,0.25000,0.50000,0.22500*
1,1,0.25000,0.50000,-0.22500*
%
%ADD42ROUNDEDRECTD42*%
%TA.AperFunction,ConnectorPad*%
G04:AMPARAMS|DCode=43|XSize=1.0032mm|YSize=1.2032mm|CornerRadius=0.2016mm|HoleSize=0mm|Usage=FLASHONLY|Rotation=180.000|XOffset=0mm|YOffset=0mm|HoleType=Round|Shape=RoundedRectangle|*
%AMROUNDEDRECTD43*
21,1,1.00320,0.80000,0,0,180.0*
21,1,0.60000,1.20320,0,0,180.0*
1,1,0.40320,-0.30000,0.40000*
1,1,0.40320,0.30000,0.40000*
1,1,0.40320,0.30000,-0.40000*
1,1,0.40320,-0.30000,-0.40000*
%
%ADD43ROUNDEDRECTD43*%
%TA.AperFunction,SMDPad,CuDef*%
G04:AMPARAMS|DCode=44|XSize=0.8032mm|YSize=0.9032mm|CornerRadius=0.1766mm|HoleSize=0mm|Usage=FLASHONLY|Rotation=0.000|XOffset=0mm|YOffset=0mm|HoleType=Round|Shape=RoundedRectangle|*
%AMROUNDEDRECTD44*
21,1,0.80320,0.55000,0,0,0.0*
21,1,0.45000,0.90320,0,0,0.0*
1,1,0.35320,0.22500,-0.27500*
1,1,0.35320,-0.22500,-0.27500*
1,1,0.35320,-0.22500,0.27500*
1,1,0.35320,0.22500,0.27500*
%
%ADD44ROUNDEDRECTD44*%
G04:AMPARAMS|DCode=45|XSize=1.0032mm|YSize=1.2032mm|CornerRadius=0.2016mm|HoleSize=0mm|Usage=FLASHONLY|Rotation=270.000|XOffset=0mm|YOffset=0mm|HoleType=Round|Shape=RoundedRectangle|*
%AMROUNDEDRECTD45*
21,1,1.00320,0.80000,0,0,270.0*
21,1,0.60000,1.20320,0,0,270.0*
1,1,0.40320,-0.40000,-0.30000*
1,1,0.40320,-0.40000,0.30000*
1,1,0.40320,0.40000,0.30000*
1,1,0.40320,0.40000,-0.30000*
%
%ADD45ROUNDEDRECTD45*%
G04:AMPARAMS|DCode=46|XSize=0.8032mm|YSize=1.4032mm|CornerRadius=0.1766mm|HoleSize=0mm|Usage=FLASHONLY|Rotation=180.000|XOffset=0mm|YOffset=0mm|HoleType=Round|Shape=RoundedRectangle|*
%AMROUNDEDRECTD46*
21,1,0.80320,1.05000,0,0,180.0*
21,1,0.45000,1.40320,0,0,180.0*
1,1,0.35320,-0.22500,0.52500*
1,1,0.35320,0.22500,0.52500*
1,1,0.35320,0.22500,-0.52500*
1,1,0.35320,-0.22500,-0.52500*
%
%ADD46ROUNDEDRECTD46*%
G04:AMPARAMS|DCode=47|XSize=1.6032mm|YSize=1.9032mm|CornerRadius=0.2766mm|HoleSize=0mm|Usage=FLASHONLY|Rotation=270.000|XOffset=0mm|YOffset=0mm|HoleType=Round|Shape=RoundedRectangle|*
%AMROUNDEDRECTD47*
21,1,1.60320,1.35000,0,0,270.0*
21,1,1.05000,1.90320,0,0,270.0*
1,1,0.55320,-0.67500,-0.52500*
1,1,0.55320,-0.67500,0.52500*
1,1,0.55320,0.67500,0.52500*
1,1,0.55320,0.67500,-0.52500*
%
%ADD47ROUNDEDRECTD47*%
G04:AMPARAMS|DCode=48|XSize=1.0032mm|YSize=1.2032mm|CornerRadius=0.2016mm|HoleSize=0mm|Usage=FLASHONLY|Rotation=0.000|XOffset=0mm|YOffset=0mm|HoleType=Round|Shape=RoundedRectangle|*
%AMROUNDEDRECTD48*
21,1,1.00320,0.80000,0,0,0.0*
21,1,0.60000,1.20320,0,0,0.0*
1,1,0.40320,0.30000,-0.40000*
1,1,0.40320,-0.30000,-0.40000*
1,1,0.40320,-0.30000,0.40000*
1,1,0.40320,0.30000,0.40000*
%
%ADD48ROUNDEDRECTD48*%
%TA.AperFunction,ConnectorPad*%
%ADD49R,0.85320X1.90320*%
%ADD50R,1.20320X3.10320*%
%TA.AperFunction,SMDPad,CuDef*%
G04:AMPARAMS|DCode=51|XSize=0.8032mm|YSize=0.9032mm|CornerRadius=0.1766mm|HoleSize=0mm|Usage=FLASHONLY|Rotation=270.000|XOffset=0mm|YOffset=0mm|HoleType=Round|Shape=RoundedRectangle|*
%AMROUNDEDRECTD51*
21,1,0.80320,0.55000,0,0,270.0*
21,1,0.45000,0.90320,0,0,270.0*
1,1,0.35320,-0.27500,-0.22500*
1,1,0.35320,-0.27500,0.22500*
1,1,0.35320,0.27500,0.22500*
1,1,0.35320,0.27500,-0.22500*
%
%ADD51ROUNDEDRECTD51*%
G04:AMPARAMS|DCode=52|XSize=1.5032mm|YSize=1.3032mm|CornerRadius=0.1566mm|HoleSize=0mm|Usage=FLASHONLY|Rotation=90.000|XOffset=0mm|YOffset=0mm|HoleType=Round|Shape=RoundedRectangle|*
%AMROUNDEDRECTD52*
21,1,1.50320,0.99000,0,0,90.0*
21,1,1.19000,1.30320,0,0,90.0*
1,1,0.31320,0.49500,0.59500*
1,1,0.31320,0.49500,-0.59500*
1,1,0.31320,-0.49500,-0.59500*
1,1,0.31320,-0.49500,0.59500*
%
%ADD52ROUNDEDRECTD52*%
%ADD53R,0.50320X0.95320*%
%ADD54R,0.95320X0.50320*%
%ADD55R,0.45320X0.50320*%
%ADD56R,0.50320X0.45320*%
%ADD57R,0.75320X0.50320*%
%ADD58R,0.50320X0.75320*%
%TA.AperFunction,ComponentPad*%
%ADD59C,1.27020*%
%TA.AperFunction,TestPad*%
%ADD60O,2.30320X1.20320*%
%ADD61C,0.75000*%
%ADD62O,2.00320X1.20320*%
%TA.AperFunction,ViaPad*%
%ADD63C,4.20320*%
%ADD64C,0.90320*%
%ADD65C,0.80320*%
G36*
X636334Y-144866D02*
X637646Y-145126D01*
X638912Y-145556D01*
X640111Y-146148D01*
X641222Y-146890D01*
X642228Y-147772D01*
X643109Y-148777D01*
X643852Y-149889D01*
X644444Y-151088D01*
X644873Y-152354D01*
X645134Y-153666D01*
X645222Y-155000D01*
Y-170500D01*
X645134Y-171834D01*
X644873Y-173146D01*
X644659Y-173779D01*
X644444Y-174412D01*
X643852Y-175611D01*
X643109Y-176723D01*
X642228Y-177728D01*
X627727Y-192228D01*
X626722Y-193110D01*
X625611Y-193852D01*
X624412Y-194444D01*
X623146Y-194873D01*
X621834Y-195134D01*
X620500Y-195222D01*
X585000D01*
X583666Y-195134D01*
X582354Y-194873D01*
X581088Y-194444D01*
X579889Y-193852D01*
X578777Y-193109D01*
X577772Y-192228D01*
X576890Y-191222D01*
X576148Y-190111D01*
X575556Y-188911D01*
X575126Y-187646D01*
X574865Y-186334D01*
X574778Y-185000D01*
Y-155000D01*
X574865Y-153666D01*
X575126Y-152354D01*
X575556Y-151088D01*
X576148Y-149889D01*
X576890Y-148777D01*
X577772Y-147772D01*
X578777Y-146890D01*
X579889Y-146148D01*
X581088Y-145556D01*
X582354Y-145126D01*
X583666Y-144866D01*
X585000Y-144778D01*
X635000D01*
X636334Y-144866D01*
D02*
G37*
G36*
X666334Y-174866D02*
X667646Y-175126D01*
X668912Y-175556D01*
X670111Y-176148D01*
X671222Y-176890D01*
X672228Y-177772D01*
X673109Y-178777D01*
X673852Y-179889D01*
X674444Y-181088D01*
X674873Y-182354D01*
X675134Y-183666D01*
X675222Y-185000D01*
Y-235000D01*
X675134Y-236334D01*
X674873Y-237646D01*
X674444Y-238912D01*
X673852Y-240111D01*
X673109Y-241223D01*
X672228Y-242228D01*
X671222Y-243109D01*
X670111Y-243852D01*
X668912Y-244444D01*
X667646Y-244874D01*
X666334Y-245134D01*
X665000Y-245222D01*
X635000D01*
X633666Y-245134D01*
X632354Y-244874D01*
X631088Y-244444D01*
X629889Y-243852D01*
X628778Y-243109D01*
X627772Y-242228D01*
X626891Y-241223D01*
X626148Y-240111D01*
X625556Y-238912D01*
X625127Y-237646D01*
X624866Y-236334D01*
X624778Y-235000D01*
Y-199500D01*
X624866Y-198166D01*
X625127Y-196854D01*
X625556Y-195588D01*
X626148Y-194389D01*
X626890Y-193277D01*
X627772Y-192272D01*
X642272Y-177772D01*
X643277Y-176890D01*
X644389Y-176147D01*
X645588Y-175556D01*
X646221Y-175341D01*
X646854Y-175126D01*
X648166Y-174866D01*
X649500Y-174778D01*
X665000D01*
X666334Y-174866D01*
D02*
G37*
G36*
Y205134D02*
X667646Y204874D01*
X668912Y204444D01*
X670111Y203852D01*
X671222Y203110D01*
X672228Y202228D01*
X673109Y201223D01*
X673852Y200111D01*
X674444Y198912D01*
X674873Y197646D01*
X675134Y196334D01*
X675222Y195000D01*
Y145000D01*
X675134Y143666D01*
X674873Y142354D01*
X674444Y141088D01*
X673852Y139889D01*
X673109Y138777D01*
X672228Y137772D01*
X671222Y136891D01*
X670111Y136148D01*
X668912Y135556D01*
X667646Y135126D01*
X666334Y134866D01*
X665000Y134778D01*
X649500D01*
X648166Y134866D01*
X646854Y135126D01*
X646221Y135341D01*
X645588Y135556D01*
X644389Y136148D01*
X643277Y136891D01*
X642272Y137772D01*
X627772Y152272D01*
X626890Y153278D01*
X626148Y154389D01*
X625556Y155588D01*
X625127Y156854D01*
X624866Y158166D01*
X624778Y159500D01*
Y195000D01*
X624866Y196334D01*
X625127Y197646D01*
X625556Y198912D01*
X626148Y200111D01*
X626891Y201223D01*
X627772Y202228D01*
X628778Y203110D01*
X629889Y203852D01*
X631088Y204444D01*
X632354Y204874D01*
X633666Y205134D01*
X635000Y205222D01*
X665000D01*
X666334Y205134D01*
D02*
G37*
G36*
X621834Y155134D02*
X623146Y154873D01*
X624412Y154444D01*
X625611Y153852D01*
X626722Y153110D01*
X627727Y152228D01*
X642228Y137728D01*
X643109Y136723D01*
X643852Y135611D01*
X644444Y134412D01*
X644659Y133779D01*
X644873Y133146D01*
X645134Y131834D01*
X645222Y130500D01*
Y115000D01*
X645134Y113666D01*
X644873Y112354D01*
X644444Y111088D01*
X643852Y109889D01*
X643109Y108778D01*
X642228Y107772D01*
X641222Y106891D01*
X640111Y106148D01*
X638912Y105556D01*
X637646Y105127D01*
X636334Y104866D01*
X635000Y104778D01*
X585000D01*
X583666Y104866D01*
X582354Y105127D01*
X581088Y105556D01*
X579889Y106148D01*
X578777Y106891D01*
X577772Y107772D01*
X576890Y108778D01*
X576148Y109889D01*
X575556Y111088D01*
X575126Y112354D01*
X574865Y113666D01*
X574778Y115000D01*
Y145000D01*
X574865Y146334D01*
X575126Y147646D01*
X575556Y148912D01*
X576148Y150111D01*
X576890Y151222D01*
X577772Y152228D01*
X578777Y153109D01*
X579889Y153852D01*
X581088Y154444D01*
X582354Y154873D01*
X583666Y155134D01*
X585000Y155222D01*
X620500D01*
X621834Y155134D01*
D02*
G37*
G36*
X1016334Y-144866D02*
X1017646Y-145126D01*
X1018912Y-145556D01*
X1020111Y-146148D01*
X1021222Y-146890D01*
X1022228Y-147772D01*
X1023109Y-148777D01*
X1023852Y-149889D01*
X1024444Y-151088D01*
X1024873Y-152354D01*
X1025134Y-153666D01*
X1025222Y-155000D01*
Y-185000D01*
X1025134Y-186334D01*
X1024873Y-187646D01*
X1024444Y-188911D01*
X1023852Y-190111D01*
X1023109Y-191222D01*
X1022228Y-192228D01*
X1021222Y-193109D01*
X1020111Y-193852D01*
X1018912Y-194444D01*
X1017646Y-194873D01*
X1016334Y-195134D01*
X1015000Y-195222D01*
X979500D01*
X978166Y-195134D01*
X976854Y-194873D01*
X975588Y-194444D01*
X974389Y-193852D01*
X973277Y-193110D01*
X972272Y-192228D01*
X957772Y-177728D01*
X956890Y-176723D01*
X956147Y-175611D01*
X955556Y-174412D01*
X955341Y-173779D01*
X955126Y-173146D01*
X954866Y-171834D01*
X954778Y-170500D01*
Y-155000D01*
X954866Y-153666D01*
X955126Y-152354D01*
X955556Y-151088D01*
X956148Y-149889D01*
X956890Y-148777D01*
X957772Y-147772D01*
X958777Y-146890D01*
X959889Y-146148D01*
X961088Y-145556D01*
X962354Y-145126D01*
X963666Y-144866D01*
X965000Y-144778D01*
X1015000D01*
X1016334Y-144866D01*
D02*
G37*
G36*
X951834Y-174866D02*
X953146Y-175126D01*
X953779Y-175341D01*
X954412Y-175556D01*
X955611Y-176147D01*
X956723Y-176890D01*
X957728Y-177772D01*
X972228Y-192272D01*
X973110Y-193277D01*
X973852Y-194389D01*
X974444Y-195588D01*
X974873Y-196854D01*
X975134Y-198166D01*
X975222Y-199500D01*
Y-235000D01*
X975134Y-236334D01*
X974873Y-237646D01*
X974444Y-238912D01*
X973852Y-240111D01*
X973109Y-241223D01*
X972228Y-242228D01*
X971222Y-243109D01*
X970111Y-243852D01*
X968911Y-244444D01*
X967646Y-244874D01*
X966334Y-245134D01*
X965000Y-245222D01*
X935000D01*
X933666Y-245134D01*
X932354Y-244874D01*
X931088Y-244444D01*
X929889Y-243852D01*
X928777Y-243109D01*
X927772Y-242228D01*
X926890Y-241223D01*
X926148Y-240111D01*
X925556Y-238912D01*
X925126Y-237646D01*
X924866Y-236334D01*
X924778Y-235000D01*
Y-185000D01*
X924866Y-183666D01*
X925126Y-182354D01*
X925556Y-181088D01*
X926148Y-179889D01*
X926890Y-178777D01*
X927772Y-177772D01*
X928777Y-176890D01*
X929889Y-176148D01*
X931088Y-175556D01*
X932354Y-175126D01*
X933666Y-174866D01*
X935000Y-174778D01*
X950500D01*
X951834Y-174866D01*
D02*
G37*
G36*
X966334Y205134D02*
X967646Y204874D01*
X968911Y204444D01*
X970111Y203852D01*
X971222Y203110D01*
X972228Y202228D01*
X973109Y201223D01*
X973852Y200111D01*
X974444Y198912D01*
X974873Y197646D01*
X975134Y196334D01*
X975222Y195000D01*
Y159500D01*
X975134Y158166D01*
X974873Y156854D01*
X974444Y155588D01*
X973852Y154389D01*
X973110Y153278D01*
X972228Y152272D01*
X957728Y137772D01*
X956723Y136891D01*
X955611Y136148D01*
X954412Y135556D01*
X953779Y135341D01*
X953146Y135126D01*
X951834Y134866D01*
X950500Y134778D01*
X935000D01*
X933666Y134866D01*
X932354Y135126D01*
X931088Y135556D01*
X929889Y136148D01*
X928777Y136891D01*
X927772Y137772D01*
X926890Y138777D01*
X926148Y139889D01*
X925556Y141088D01*
X925126Y142354D01*
X924866Y143666D01*
X924778Y145000D01*
Y195000D01*
X924866Y196334D01*
X925126Y197646D01*
X925556Y198912D01*
X926148Y200111D01*
X926890Y201223D01*
X927772Y202228D01*
X928777Y203110D01*
X929889Y203852D01*
X931088Y204444D01*
X932354Y204874D01*
X933666Y205134D01*
X935000Y205222D01*
X965000D01*
X966334Y205134D01*
D02*
G37*
G36*
X1016334Y155134D02*
X1017646Y154873D01*
X1018912Y154444D01*
X1020111Y153852D01*
X1021222Y153109D01*
X1022228Y152228D01*
X1023109Y151222D01*
X1023852Y150111D01*
X1024444Y148912D01*
X1024873Y147646D01*
X1025134Y146334D01*
X1025222Y145000D01*
Y115000D01*
X1025134Y113666D01*
X1024873Y112354D01*
X1024444Y111088D01*
X1023852Y109889D01*
X1023109Y108778D01*
X1022228Y107772D01*
X1021222Y106891D01*
X1020111Y106148D01*
X1018912Y105556D01*
X1017646Y105127D01*
X1016334Y104866D01*
X1015000Y104778D01*
X965000D01*
X963666Y104866D01*
X962354Y105127D01*
X961088Y105556D01*
X959889Y106148D01*
X958777Y106891D01*
X957772Y107772D01*
X956890Y108778D01*
X956148Y109889D01*
X955556Y111088D01*
X955126Y112354D01*
X954866Y113666D01*
X954778Y115000D01*
Y130500D01*
X954866Y131834D01*
X955126Y133146D01*
X955341Y133779D01*
X955556Y134412D01*
X956147Y135611D01*
X956890Y136723D01*
X957772Y137728D01*
X972272Y152228D01*
X973277Y153110D01*
X974389Y153852D01*
X975588Y154444D01*
X976854Y154873D01*
X978166Y155134D01*
X979500Y155222D01*
X1015000D01*
X1016334Y155134D01*
D02*
G37*
D26*
X-1030000Y997500D02*
D03*
Y1142500D02*
D03*
D40*
X-533000Y-597000D02*
D03*
X-660000Y-470000D02*
D03*
X-533000D02*
D03*
X-406000D02*
D03*
X-660000Y-597000D02*
D03*
X-406000D02*
D03*
D41*
X-1894250Y-175000D02*
D03*
Y25000D02*
D03*
Y-25000D02*
D03*
Y-75000D02*
D03*
Y75000D02*
D03*
Y125000D02*
D03*
Y175000D02*
D03*
Y-125000D02*
D03*
D42*
Y-240000D02*
D03*
Y240000D02*
D03*
Y-320000D02*
D03*
Y320000D02*
D03*
D43*
X762500Y1275000D02*
D03*
X912500D02*
D03*
D44*
X-1722500Y600000D02*
D03*
X-1622500D02*
D03*
D45*
X-1570000Y712500D02*
D03*
X-1742500D02*
D03*
X1930000Y425000D02*
D03*
Y275000D02*
D03*
X-1570000Y862500D02*
D03*
X-997500Y327500D02*
D03*
Y177500D02*
D03*
X407500Y150000D02*
D03*
Y300000D02*
D03*
X-822500Y325000D02*
D03*
Y175000D02*
D03*
X1640000Y-495000D02*
D03*
Y-345000D02*
D03*
X-607500Y322500D02*
D03*
Y172500D02*
D03*
X1157500Y-387500D02*
D03*
Y-537500D02*
D03*
X1150000Y145000D02*
D03*
Y295000D02*
D03*
X1633000Y-12500D02*
D03*
Y-162500D02*
D03*
X-1742500Y862500D02*
D03*
D46*
X-1115000Y520000D02*
D03*
X-925000Y760000D02*
D03*
X-1115000D02*
D03*
X-1020000Y520000D02*
D03*
Y760000D02*
D03*
X-925000Y520000D02*
D03*
D47*
X-1367500Y683200D02*
D03*
Y911800D02*
D03*
X-680000Y1146800D02*
D03*
Y918200D02*
D03*
D48*
X665000Y600000D02*
D03*
X515000D02*
D03*
X735000Y-700000D02*
D03*
X885000D02*
D03*
X-2175000Y-657500D02*
D03*
X-2025000D02*
D03*
X455000Y-690000D02*
D03*
X305000D02*
D03*
X-2200000Y590000D02*
D03*
X-2050000D02*
D03*
X1402500Y432500D02*
D03*
X1252500D02*
D03*
D49*
X767500Y-950000D02*
D03*
X517500D02*
D03*
X267500D02*
D03*
X642500D02*
D03*
X892500D02*
D03*
X392500D02*
D03*
D50*
X82500Y-1230000D02*
D03*
X1077500D02*
D03*
D51*
X1412500Y147500D02*
D03*
Y247500D02*
D03*
D52*
X1835000Y-25000D02*
D03*
X2025000Y-255000D02*
D03*
Y-25000D02*
D03*
X1835000Y-255000D02*
D03*
D53*
X595000Y1037500D02*
D03*
X795000D02*
D03*
X895000Y777500D02*
D03*
X845000D02*
D03*
X745000D02*
D03*
X695000D02*
D03*
X645000D02*
D03*
X595000D02*
D03*
X695000Y1037500D02*
D03*
X795000Y777500D02*
D03*
X895000Y1037500D02*
D03*
X845000D02*
D03*
X645000D02*
D03*
X745000D02*
D03*
D54*
X950000Y907500D02*
D03*
X540000D02*
D03*
D55*
X650000Y175000D02*
D03*
X950000D02*
D03*
X650000Y-215000D02*
D03*
X950000D02*
D03*
D56*
X995000Y130000D02*
D03*
X605000D02*
D03*
X995000Y-170000D02*
D03*
X605000Y-170000D02*
D03*
D57*
X987500Y-70000D02*
D03*
Y30000D02*
D03*
Y80000D02*
D03*
X612500Y30000D02*
D03*
Y-70000D02*
D03*
Y-120000D02*
D03*
X987500Y-20000D02*
D03*
Y-120000D02*
D03*
X612500Y-20000D02*
D03*
Y80000D02*
D03*
D58*
X900000Y167500D02*
D03*
X850000D02*
D03*
X800000D02*
D03*
X750000D02*
D03*
X700000D02*
D03*
Y-207500D02*
D03*
X750000D02*
D03*
X800000D02*
D03*
X850000D02*
D03*
X900000D02*
D03*
D59*
X-787000Y-533500D02*
D03*
X-279000Y-431900D02*
D03*
Y-635100D02*
D03*
D60*
X-1951750Y-432000D02*
D03*
Y432000D02*
D03*
D61*
X-2001750Y289000D02*
D03*
Y-289000D02*
D03*
D62*
X-2369750Y432000D02*
D03*
Y-432000D02*
D03*
D63*
X2174500Y1132500D02*
D03*
X-2174500D02*
D03*
Y-1132500D02*
D03*
X2174500Y-1132500D02*
D03*
D64*
X-1720000Y-240000D02*
D03*
X-2092500Y202500D02*
D03*
X2192996Y749997D02*
D03*
X2342996Y449997D02*
D03*
Y-750003D02*
D03*
X1892996Y749997D02*
D03*
X2042996Y449997D02*
D03*
X1892996Y-1050002D02*
D03*
X1742997Y1049997D02*
D03*
X1592997Y749997D02*
D03*
Y-1050002D02*
D03*
X1292997Y-450003D02*
D03*
Y-1050002D02*
D03*
X392997Y749997D02*
D03*
X92997D02*
D03*
Y-450003D02*
D03*
X-57003Y1049997D02*
D03*
X-207003Y749997D02*
D03*
X-57003Y449997D02*
D03*
X-207003Y149997D02*
D03*
X-357003Y1049997D02*
D03*
X-507003Y749997D02*
D03*
X-357003Y449997D02*
D03*
X-657003D02*
D03*
X-807003Y-1050002D02*
D03*
X-1107003Y-450003D02*
D03*
X-957003Y-750003D02*
D03*
X-1107003Y-1050002D02*
D03*
X-1257003Y449997D02*
D03*
X-1407003Y149997D02*
D03*
Y-450003D02*
D03*
X-1257003Y-750003D02*
D03*
X-1407003Y-1050002D02*
D03*
X-1557002Y-750003D02*
D03*
X-1707002Y-1050002D02*
D03*
X-1857002Y1049997D02*
D03*
X-1865000Y-662500D02*
D03*
X-1730000Y-380000D02*
D03*
X-1742500Y340000D02*
D03*
X-1907500Y590000D02*
D03*
X-1917500Y857500D02*
D03*
X-1367500Y1092500D02*
D03*
X-675000Y742500D02*
D03*
X-827500Y862500D02*
D03*
X237500Y292500D02*
D03*
X387500Y590000D02*
D03*
X1760000Y417500D02*
D03*
X2035000Y140000D02*
D03*
X1822500Y-410000D02*
D03*
X1302500Y-595000D02*
D03*
X545000Y-1142500D02*
D03*
X-207500Y-792500D02*
D03*
X-772500Y480000D02*
D03*
X1087500Y1258800D02*
D03*
X1287500Y590000D02*
D03*
X1130000Y1062500D02*
D03*
X427500Y1125000D02*
D03*
X-1197500Y172500D02*
D03*
X637341Y1173393D02*
D03*
X577500Y1320000D02*
D03*
X352500Y-505000D02*
D03*
X180000Y417500D02*
D03*
X717500Y500000D02*
D03*
X847500Y892500D02*
D03*
X552500Y827500D02*
D03*
X1025000Y-712500D02*
D03*
X-492500Y-997500D02*
D03*
X-309987Y-897410D02*
D03*
D65*
X-1570000Y982500D02*
D03*
%TF.MD5,f65a4a2009bf9325adfe1ad3415760a6*%
M02*
