%TF.GenerationSoftware,Altium Limited,Altium Designer,25.7.1 (20)*%
G04 Layer_Color=8421504*
%FSLAX45Y45*%
%MOMM*%
%TF.SameCoordinates,8071C31C-8A66-4455-A033-DC46DB2AE162*%
%TF.FilePolarity,Positive*%
%TF.FileFunction,Paste,Top*%
%TF.Part,Single*%
G01*
G75*
%TA.AperFunction,TestPad*%
G04:AMPARAMS|DCode=12|XSize=0.3mm|YSize=1.15mm|CornerRadius=0.0375mm|HoleSize=0mm|Usage=FLASHONLY|Rotation=270.000|XOffset=0mm|YOffset=0mm|HoleType=Round|Shape=RoundedRectangle|*
%AMROUNDEDRECTD12*
21,1,0.30000,1.07500,0,0,270.0*
21,1,0.22500,1.15000,0,0,270.0*
1,1,0.07500,-0.53750,-0.11250*
1,1,0.07500,-0.53750,0.11250*
1,1,0.07500,0.53750,0.11250*
1,1,0.07500,0.53750,-0.11250*
%
%ADD12ROUNDEDRECTD12*%
G04:AMPARAMS|DCode=13|XSize=0.6mm|YSize=1.15mm|CornerRadius=0.075mm|HoleSize=0mm|Usage=FLASHONLY|Rotation=270.000|XOffset=0mm|YOffset=0mm|HoleType=Round|Shape=RoundedRectangle|*
%AMROUNDEDRECTD13*
21,1,0.60000,1.00000,0,0,270.0*
21,1,0.45000,1.15000,0,0,270.0*
1,1,0.15000,-0.50000,-0.22500*
1,1,0.15000,-0.50000,0.22500*
1,1,0.15000,0.50000,0.22500*
1,1,0.15000,0.50000,-0.22500*
%
%ADD13ROUNDEDRECTD13*%
%TA.AperFunction,ConnectorPad*%
G04:AMPARAMS|DCode=14|XSize=0.8mm|YSize=1mm|CornerRadius=0.1mm|HoleSize=0mm|Usage=FLASHONLY|Rotation=180.000|XOffset=0mm|YOffset=0mm|HoleType=Round|Shape=RoundedRectangle|*
%AMROUNDEDRECTD14*
21,1,0.80000,0.80000,0,0,180.0*
21,1,0.60000,1.00000,0,0,180.0*
1,1,0.20000,-0.30000,0.40000*
1,1,0.20000,0.30000,0.40000*
1,1,0.20000,0.30000,-0.40000*
1,1,0.20000,-0.30000,-0.40000*
%
%ADD14ROUNDEDRECTD14*%
%TA.AperFunction,SMDPad,CuDef*%
G04:AMPARAMS|DCode=15|XSize=0.6mm|YSize=0.7mm|CornerRadius=0.075mm|HoleSize=0mm|Usage=FLASHONLY|Rotation=0.000|XOffset=0mm|YOffset=0mm|HoleType=Round|Shape=RoundedRectangle|*
%AMROUNDEDRECTD15*
21,1,0.60000,0.55000,0,0,0.0*
21,1,0.45000,0.70000,0,0,0.0*
1,1,0.15000,0.22500,-0.27500*
1,1,0.15000,-0.22500,-0.27500*
1,1,0.15000,-0.22500,0.27500*
1,1,0.15000,0.22500,0.27500*
%
%ADD15ROUNDEDRECTD15*%
G04:AMPARAMS|DCode=16|XSize=0.8mm|YSize=1mm|CornerRadius=0.1mm|HoleSize=0mm|Usage=FLASHONLY|Rotation=270.000|XOffset=0mm|YOffset=0mm|HoleType=Round|Shape=RoundedRectangle|*
%AMROUNDEDRECTD16*
21,1,0.80000,0.80000,0,0,270.0*
21,1,0.60000,1.00000,0,0,270.0*
1,1,0.20000,-0.40000,-0.30000*
1,1,0.20000,-0.40000,0.30000*
1,1,0.20000,0.40000,0.30000*
1,1,0.20000,0.40000,-0.30000*
%
%ADD16ROUNDEDRECTD16*%
G04:AMPARAMS|DCode=17|XSize=0.6mm|YSize=1.2mm|CornerRadius=0.075mm|HoleSize=0mm|Usage=FLASHONLY|Rotation=180.000|XOffset=0mm|YOffset=0mm|HoleType=Round|Shape=RoundedRectangle|*
%AMROUNDEDRECTD17*
21,1,0.60000,1.05000,0,0,180.0*
21,1,0.45000,1.20000,0,0,180.0*
1,1,0.15000,-0.22500,0.52500*
1,1,0.15000,0.22500,0.52500*
1,1,0.15000,0.22500,-0.52500*
1,1,0.15000,-0.22500,-0.52500*
%
%ADD17ROUNDEDRECTD17*%
G04:AMPARAMS|DCode=18|XSize=1.4mm|YSize=1.7mm|CornerRadius=0.175mm|HoleSize=0mm|Usage=FLASHONLY|Rotation=270.000|XOffset=0mm|YOffset=0mm|HoleType=Round|Shape=RoundedRectangle|*
%AMROUNDEDRECTD18*
21,1,1.40000,1.35000,0,0,270.0*
21,1,1.05000,1.70000,0,0,270.0*
1,1,0.35000,-0.67500,-0.52500*
1,1,0.35000,-0.67500,0.52500*
1,1,0.35000,0.67500,0.52500*
1,1,0.35000,0.67500,-0.52500*
%
%ADD18ROUNDEDRECTD18*%
G04:AMPARAMS|DCode=19|XSize=0.8mm|YSize=1mm|CornerRadius=0.1mm|HoleSize=0mm|Usage=FLASHONLY|Rotation=0.000|XOffset=0mm|YOffset=0mm|HoleType=Round|Shape=RoundedRectangle|*
%AMROUNDEDRECTD19*
21,1,0.80000,0.80000,0,0,0.0*
21,1,0.60000,1.00000,0,0,0.0*
1,1,0.20000,0.30000,-0.40000*
1,1,0.20000,-0.30000,-0.40000*
1,1,0.20000,-0.30000,0.40000*
1,1,0.20000,0.30000,0.40000*
%
%ADD19ROUNDEDRECTD19*%
%TA.AperFunction,ConnectorPad*%
%ADD20R,0.65000X1.70000*%
%ADD21R,1.00000X2.90000*%
%TA.AperFunction,SMDPad,CuDef*%
G04:AMPARAMS|DCode=22|XSize=0.6mm|YSize=0.7mm|CornerRadius=0.075mm|HoleSize=0mm|Usage=FLASHONLY|Rotation=270.000|XOffset=0mm|YOffset=0mm|HoleType=Round|Shape=RoundedRectangle|*
%AMROUNDEDRECTD22*
21,1,0.60000,0.55000,0,0,270.0*
21,1,0.45000,0.70000,0,0,270.0*
1,1,0.15000,-0.27500,-0.22500*
1,1,0.15000,-0.27500,0.22500*
1,1,0.15000,0.27500,0.22500*
1,1,0.15000,0.27500,-0.22500*
%
%ADD22ROUNDEDRECTD22*%
G04:AMPARAMS|DCode=23|XSize=1.3mm|YSize=1.1mm|CornerRadius=0.055mm|HoleSize=0mm|Usage=FLASHONLY|Rotation=90.000|XOffset=0mm|YOffset=0mm|HoleType=Round|Shape=RoundedRectangle|*
%AMROUNDEDRECTD23*
21,1,1.30000,0.99000,0,0,90.0*
21,1,1.19000,1.10000,0,0,90.0*
1,1,0.11000,0.49500,0.59500*
1,1,0.11000,0.49500,-0.59500*
1,1,0.11000,-0.49500,-0.59500*
1,1,0.11000,-0.49500,0.59500*
%
%ADD23ROUNDEDRECTD23*%
%ADD24R,0.30000X0.75000*%
%ADD25R,0.75000X0.30000*%
%ADD26R,2.00000X0.70000*%
%ADD27R,0.25000X0.30000*%
%ADD28R,0.30000X0.25000*%
%ADD29R,0.55000X0.30000*%
%ADD30R,0.30000X0.55000*%
G36*
X635000Y-170500D02*
X620500Y-185000D01*
X585000D01*
Y-155000D01*
X635000D01*
Y-170500D01*
D02*
G37*
G36*
X665000Y-235000D02*
X635000D01*
Y-199500D01*
X649500Y-185000D01*
X665000D01*
Y-235000D01*
D02*
G37*
G36*
Y145000D02*
X649500D01*
X635000Y159500D01*
Y195000D01*
X665000D01*
Y145000D01*
D02*
G37*
G36*
X635000Y130500D02*
Y115000D01*
X585000D01*
Y145000D01*
X620500D01*
X635000Y130500D01*
D02*
G37*
G36*
X1015000Y-185000D02*
X979500D01*
X965000Y-170500D01*
Y-155000D01*
X1015000D01*
Y-185000D01*
D02*
G37*
G36*
X965000Y-199500D02*
Y-235000D01*
X935000D01*
Y-185000D01*
X950500D01*
X965000Y-199500D01*
D02*
G37*
G36*
Y159500D02*
X950500Y145000D01*
X935000D01*
Y195000D01*
X965000D01*
Y159500D01*
D02*
G37*
G36*
X1015000Y115000D02*
X965000D01*
Y130500D01*
X979500Y145000D01*
X1015000D01*
Y115000D01*
D02*
G37*
D12*
X-1894250Y-175000D02*
D03*
Y25000D02*
D03*
Y-25000D02*
D03*
Y-75000D02*
D03*
Y75000D02*
D03*
Y125000D02*
D03*
Y175000D02*
D03*
Y-125000D02*
D03*
D13*
Y-240000D02*
D03*
Y240000D02*
D03*
Y-320000D02*
D03*
Y320000D02*
D03*
D14*
X762500Y1275000D02*
D03*
X912500D02*
D03*
D15*
X-1722500Y600000D02*
D03*
X-1622500D02*
D03*
D16*
X-1570000Y712500D02*
D03*
X-1742500D02*
D03*
X1930000Y425000D02*
D03*
Y275000D02*
D03*
X-1570000Y862500D02*
D03*
X-997500Y327500D02*
D03*
Y177500D02*
D03*
X407500Y150000D02*
D03*
Y300000D02*
D03*
X-822500Y325000D02*
D03*
Y175000D02*
D03*
X1640000Y-495000D02*
D03*
Y-345000D02*
D03*
X-607500Y322500D02*
D03*
Y172500D02*
D03*
X1157500Y-387500D02*
D03*
Y-537500D02*
D03*
X1150000Y145000D02*
D03*
Y295000D02*
D03*
X1633000Y-12500D02*
D03*
Y-162500D02*
D03*
X-1742500Y862500D02*
D03*
D17*
X-1115000Y520000D02*
D03*
X-925000Y760000D02*
D03*
X-1115000D02*
D03*
X-1020000Y520000D02*
D03*
Y760000D02*
D03*
X-925000Y520000D02*
D03*
D18*
X-1367500Y683200D02*
D03*
Y911800D02*
D03*
X-680000Y1146800D02*
D03*
Y918200D02*
D03*
D19*
X665000Y600000D02*
D03*
X515000D02*
D03*
X735000Y-700000D02*
D03*
X885000D02*
D03*
X-2175000Y-657500D02*
D03*
X-2025000D02*
D03*
X455000Y-690000D02*
D03*
X305000D02*
D03*
X-2200000Y590000D02*
D03*
X-2050000D02*
D03*
X1402500Y432500D02*
D03*
X1252500D02*
D03*
D20*
X767500Y-950000D02*
D03*
X517500D02*
D03*
X267500D02*
D03*
X642500D02*
D03*
X892500D02*
D03*
X392500D02*
D03*
D21*
X82500Y-1230000D02*
D03*
X1077500D02*
D03*
D22*
X1412500Y147500D02*
D03*
Y247500D02*
D03*
D23*
X1835000Y-25000D02*
D03*
X2025000Y-255000D02*
D03*
Y-25000D02*
D03*
X1835000Y-255000D02*
D03*
D24*
X595000Y1037500D02*
D03*
X795000D02*
D03*
X895000Y777500D02*
D03*
X845000D02*
D03*
X745000D02*
D03*
X695000D02*
D03*
X645000D02*
D03*
X595000D02*
D03*
X695000Y1037500D02*
D03*
X795000Y777500D02*
D03*
X895000Y1037500D02*
D03*
X845000D02*
D03*
X645000D02*
D03*
X745000D02*
D03*
D25*
X950000Y907500D02*
D03*
X540000D02*
D03*
D26*
X-1030000Y997500D02*
D03*
Y1142500D02*
D03*
D27*
X650000Y175000D02*
D03*
X950000D02*
D03*
X650000Y-215000D02*
D03*
X950000D02*
D03*
D28*
X995000Y130000D02*
D03*
X605000D02*
D03*
X995000Y-170000D02*
D03*
X605000Y-170000D02*
D03*
D29*
X987500Y-70000D02*
D03*
Y30000D02*
D03*
Y80000D02*
D03*
X612500Y30000D02*
D03*
Y-70000D02*
D03*
Y-120000D02*
D03*
X987500Y-20000D02*
D03*
Y-120000D02*
D03*
X612500Y-20000D02*
D03*
Y80000D02*
D03*
D30*
X900000Y167500D02*
D03*
X850000D02*
D03*
X800000D02*
D03*
X750000D02*
D03*
X700000D02*
D03*
Y-207500D02*
D03*
X750000D02*
D03*
X800000D02*
D03*
X850000D02*
D03*
X900000D02*
D03*
%TF.MD5,0a543a35be14a17b531d35575c6d082c*%
M02*
